<svg width="293pt" height="44pt" viewBox="0 0 293 44" xmlns="http://www.w3.org/2000/svg"><g id="fontsvg1676977688122" stroke-linecap="round" fill-rule="evenodd" fill="#02c2c2"><path d="M 108.032 14.502 L 108.032 43.335 L 101.563 43.335 L 101.563 14.893 A 5.643 5.643 0 0 0 101.481 13.904 Q 101.321 13.002 100.842 12.402 A 2.335 2.335 0 0 0 99.37 11.55 A 3.518 3.518 0 0 0 98.755 11.499 A 2.542 2.542 0 0 0 97.582 11.765 Q 97.082 12.02 96.702 12.52 A 3.383 3.383 0 0 0 96.594 12.671 A 4.228 4.228 0 0 0 96.031 13.922 Q 95.876 14.481 95.826 15.146 A 8.848 8.848 0 0 0 95.801 15.82 L 95.801 43.335 L 89.331 43.335 L 89.331 6.714 L 95.801 6.714 L 95.801 10.913 Q 96.289 8.96 97.9 7.617 A 5.728 5.728 0 0 1 101.685 6.274 Q 107.301 6.274 107.948 12.715 A 17.905 17.905 0 0 1 108.032 14.502 Z M 47.51 35.034 L 47.51 6.714 L 54.004 6.714 L 54.004 34.033 A 14.638 14.638 0 0 0 54.048 35.213 Q 54.141 36.359 54.43 37.091 A 3.258 3.258 0 0 0 54.565 37.39 A 1.907 1.907 0 0 0 55.897 38.395 A 3.378 3.378 0 0 0 56.665 38.477 Q 59.115 38.477 59.533 35.453 A 10.058 10.058 0 0 0 59.619 34.082 L 59.644 6.714 L 66.089 6.714 L 66.089 43.335 L 59.619 43.335 L 59.619 39.526 Q 58.116 43.702 54.211 43.797 A 7.528 7.528 0 0 1 54.028 43.799 A 6.798 6.798 0 0 1 51.025 43.18 Q 48.154 41.784 47.628 37.234 A 19.202 19.202 0 0 1 47.51 35.034 Z M 168.823 23.145 L 166.724 23.047 L 166.724 43.335 L 160.181 43.335 L 160.181 0.366 L 170.996 0.366 Q 173.003 0.366 174.404 0.847 A 5.215 5.215 0 0 1 176.025 1.721 A 6.055 6.055 0 0 1 177.852 4.291 A 8.17 8.17 0 0 1 178.21 5.505 Q 178.735 7.935 178.735 11.853 A 30.061 30.061 0 0 1 178.67 13.909 Q 178.502 16.348 177.905 17.822 Q 177.075 19.873 174.829 20.581 Q 177.051 20.972 177.93 23.584 Q 178.698 25.867 178.795 32.465 A 136.093 136.093 0 0 1 178.809 34.46 A 467.394 467.394 0 0 0 178.812 36.407 Q 178.839 42.801 179.053 43.335 L 172.51 43.335 A 1.389 1.389 0 0 1 172.453 42.987 Q 172.266 40.982 172.266 27.93 A 18.67 18.67 0 0 0 172.228 26.696 Q 172.107 24.879 171.597 24.154 A 1.634 1.634 0 0 0 171.582 24.133 Q 170.898 23.193 168.823 23.145 Z M 0 33.838 L 0 26.172 L 6.323 26.172 L 6.323 33.521 A 17.121 17.121 0 0 0 6.374 34.9 Q 6.547 37.025 7.304 37.732 A 1.39 1.39 0 0 0 7.471 37.866 A 1.978 1.978 0 0 0 8.176 38.154 A 2.789 2.789 0 0 0 8.74 38.208 Q 10.213 38.208 10.695 37.015 A 2.45 2.45 0 0 0 10.706 36.987 A 5.131 5.131 0 0 0 10.936 36.189 Q 11.182 35.025 11.182 33.13 L 11.182 0.366 L 17.725 0.366 L 17.725 32.813 A 19.273 19.273 0 0 1 17.487 35.944 Q 16.982 39.005 15.405 40.955 A 7.554 7.554 0 0 1 10.327 43.731 A 11.003 11.003 0 0 1 8.875 43.823 A 11.179 11.179 0 0 1 6.201 43.522 A 7.552 7.552 0 0 1 2.332 41.272 Q 0 38.721 0 33.838 Z M 184.302 31.152 L 184.302 17.505 Q 184.302 7.544 191.658 6.418 A 13.188 13.188 0 0 1 193.652 6.274 A 13.062 13.062 0 0 1 196.147 6.495 Q 199.157 7.082 200.549 9.229 Q 202.466 12.183 202.466 17.627 L 202.466 25.464 L 190.82 25.464 L 190.82 32.666 A 35.577 35.577 0 0 0 190.844 33.997 Q 190.924 36.138 191.284 37.104 A 2.181 2.181 0 0 0 191.48 37.512 A 2.119 2.119 0 0 0 193.005 38.516 A 2.946 2.946 0 0 0 193.457 38.55 A 4.419 4.419 0 0 0 194.024 38.516 Q 194.637 38.437 194.962 38.168 A 0.982 0.982 0 0 0 195.166 37.939 Q 195.825 36.865 195.923 35.742 Q 196.021 34.619 196.021 32.666 L 196.021 29.443 L 202.417 29.443 L 202.417 31.396 A 50.969 50.969 0 0 1 202.368 33.711 Q 202.222 36.92 201.636 38.55 A 13.563 13.563 0 0 1 201.13 39.777 Q 200.538 41.024 199.829 41.699 A 6.739 6.739 0 0 1 197.256 43.218 Q 196.226 43.566 194.971 43.696 A 15.385 15.385 0 0 1 193.384 43.774 Q 187.207 43.774 185.425 39.063 A 15.278 15.278 0 0 1 184.746 36.572 Q 184.5 35.277 184.39 33.752 A 36.312 36.312 0 0 1 184.302 31.152 Z M 256.006 31.152 L 256.006 17.505 Q 256.006 7.544 263.362 6.418 A 13.188 13.188 0 0 1 265.356 6.274 A 13.062 13.062 0 0 1 267.851 6.495 Q 270.861 7.082 272.253 9.229 Q 274.17 12.183 274.17 17.627 L 274.17 25.464 L 262.524 25.464 L 262.524 32.666 A 35.577 35.577 0 0 0 262.548 33.997 Q 262.628 36.138 262.988 37.104 A 2.181 2.181 0 0 0 263.184 37.512 A 2.119 2.119 0 0 0 264.709 38.516 A 2.946 2.946 0 0 0 265.161 38.55 A 4.419 4.419 0 0 0 265.728 38.516 Q 266.341 38.437 266.666 38.168 A 0.982 0.982 0 0 0 266.87 37.939 Q 267.529 36.865 267.627 35.742 Q 267.725 34.619 267.725 32.666 L 267.725 29.443 L 274.121 29.443 L 274.121 31.396 A 50.969 50.969 0 0 1 274.072 33.711 Q 273.926 36.92 273.34 38.55 A 13.563 13.563 0 0 1 272.834 39.777 Q 272.242 41.024 271.533 41.699 A 6.739 6.739 0 0 1 268.96 43.218 Q 267.93 43.566 266.675 43.696 A 15.385 15.385 0 0 1 265.088 43.774 Q 258.911 43.774 257.129 39.063 A 15.278 15.278 0 0 1 256.45 36.572 Q 256.204 35.277 256.094 33.752 A 36.312 36.312 0 0 1 256.006 31.152 Z M 113.623 33.716 L 113.623 31.372 A 13.855 13.855 0 0 1 113.871 28.664 Q 114.417 25.929 116.162 24.268 A 8.665 8.665 0 0 1 117.406 23.285 Q 118.774 22.377 120.915 21.503 A 35.885 35.885 0 0 1 121.704 21.191 Q 122.412 20.923 123.669 20.459 A 493.004 493.004 0 0 0 124.252 20.244 Q 125.055 19.946 125.439 19.8 L 125.439 16.602 A 32.791 32.791 0 0 0 125.416 15.311 Q 125.345 13.515 125.058 12.685 A 2.648 2.648 0 0 0 125.012 12.561 A 1.578 1.578 0 0 0 123.91 11.604 Q 123.539 11.499 123.059 11.499 A 3.203 3.203 0 0 0 122.32 11.578 A 1.807 1.807 0 0 0 121.021 12.622 A 4.096 4.096 0 0 0 120.773 13.372 Q 120.508 14.491 120.508 16.406 L 120.508 18.042 L 114.111 18.042 L 114.111 16.943 A 22.371 22.371 0 0 1 114.292 14.003 Q 114.484 12.553 114.883 11.365 A 8.983 8.983 0 0 1 116.052 9.009 A 5.89 5.89 0 0 1 118.852 6.916 Q 119.882 6.525 121.174 6.372 A 15.039 15.039 0 0 1 122.937 6.274 A 14.02 14.02 0 0 1 125.492 6.491 Q 126.887 6.75 127.958 7.319 A 6.087 6.087 0 0 1 129.968 9.009 A 8.74 8.74 0 0 1 131.281 11.562 Q 131.689 12.784 131.883 14.288 A 23.013 23.013 0 0 1 132.056 17.212 L 132.056 43.335 L 125.537 43.335 L 125.537 39.697 A 5.733 5.733 0 0 1 123.669 42.542 A 4.927 4.927 0 0 1 120.698 43.691 A 6.319 6.319 0 0 1 120.337 43.701 Q 116.748 43.701 115.21 41.125 Q 113.672 38.55 113.623 33.716 Z M 207.617 33.716 L 207.617 31.372 A 13.855 13.855 0 0 1 207.865 28.664 Q 208.411 25.929 210.156 24.268 A 8.665 8.665 0 0 1 211.4 23.285 Q 212.768 22.377 214.909 21.503 A 35.885 35.885 0 0 1 215.698 21.191 Q 216.406 20.923 217.664 20.459 A 493.004 493.004 0 0 0 218.246 20.244 Q 219.049 19.946 219.434 19.8 L 219.434 16.602 A 32.791 32.791 0 0 0 219.41 15.311 Q 219.339 13.515 219.053 12.685 A 2.648 2.648 0 0 0 219.006 12.561 A 1.578 1.578 0 0 0 217.904 11.604 Q 217.533 11.499 217.053 11.499 A 3.203 3.203 0 0 0 216.314 11.578 A 1.807 1.807 0 0 0 215.015 12.622 A 4.096 4.096 0 0 0 214.768 13.372 Q 214.502 14.491 214.502 16.406 L 214.502 18.042 L 208.106 18.042 L 208.106 16.943 A 22.371 22.371 0 0 1 208.286 14.003 Q 208.478 12.553 208.877 11.365 A 8.983 8.983 0 0 1 210.046 9.009 A 5.89 5.89 0 0 1 212.846 6.916 Q 213.876 6.525 215.168 6.372 A 15.039 15.039 0 0 1 216.931 6.274 A 14.02 14.02 0 0 1 219.486 6.491 Q 220.881 6.75 221.952 7.319 A 6.087 6.087 0 0 1 223.962 9.009 A 8.74 8.74 0 0 1 225.275 11.562 Q 225.683 12.784 225.877 14.288 A 23.013 23.013 0 0 1 226.05 17.212 L 226.05 43.335 L 219.531 43.335 L 219.531 39.697 A 5.733 5.733 0 0 1 217.664 42.542 A 4.927 4.927 0 0 1 214.692 43.691 A 6.319 6.319 0 0 1 214.331 43.701 Q 210.742 43.701 209.204 41.125 Q 207.666 38.55 207.617 33.716 Z M 231.641 31.641 L 231.641 16.724 Q 231.641 12.134 233.325 9.204 A 5.562 5.562 0 0 1 237.352 6.405 A 8.655 8.655 0 0 1 238.892 6.274 Q 240.405 6.274 241.663 7.007 Q 242.92 7.739 243.628 8.984 L 243.628 0 L 250.098 0 L 250.098 43.335 L 243.628 43.335 L 243.628 39.941 A 7.044 7.044 0 0 1 242.571 41.822 Q 241.173 43.554 238.79 43.69 A 7.247 7.247 0 0 1 238.379 43.701 A 8.342 8.342 0 0 1 236.678 43.539 Q 234.967 43.182 233.96 42.041 Q 232.495 40.381 232.068 37.83 A 27.528 27.528 0 0 1 231.808 35.763 Q 231.703 34.608 231.664 33.286 A 55.668 55.668 0 0 1 231.641 31.641 Z M 85.376 10.376 L 85.352 11.743 A 11.506 11.506 0 0 0 81.519 12.402 A 6.572 6.572 0 0 0 80.516 12.843 Q 79.465 13.424 79.053 14.282 L 79.053 43.335 L 72.534 43.335 L 72.534 6.714 L 79.053 6.714 L 79.053 10.791 A 6.993 6.993 0 0 1 79.86 8.989 A 5.738 5.738 0 0 1 81.287 7.458 A 5.911 5.911 0 0 1 83.719 6.416 A 8.213 8.213 0 0 1 85.278 6.274 Q 85.376 6.274 85.376 10.376 Z M 292.773 10.376 L 292.749 11.743 A 11.506 11.506 0 0 0 288.916 12.402 A 6.572 6.572 0 0 0 287.914 12.843 Q 286.862 13.424 286.45 14.282 L 286.45 43.335 L 279.932 43.335 L 279.932 6.714 L 286.45 6.714 L 286.45 10.791 A 6.993 6.993 0 0 1 287.257 8.989 A 5.738 5.738 0 0 1 288.684 7.458 A 5.911 5.911 0 0 1 291.116 6.416 A 8.213 8.213 0 0 1 292.676 6.274 Q 292.773 6.274 292.773 10.376 Z M 144.702 43.335 L 138.257 43.335 L 138.257 0 L 144.702 0 L 144.702 43.335 Z M 23.535 31.714 L 23.535 18.018 A 22.094 22.094 0 0 1 23.913 13.731 Q 25.257 6.967 31.386 6.339 A 12.799 12.799 0 0 1 32.69 6.274 Q 40.815 6.274 41.73 15.522 A 25.394 25.394 0 0 1 41.846 18.018 L 41.846 31.714 A 27.451 27.451 0 0 1 41.62 35.382 Q 41.05 39.595 39.035 41.647 A 6.152 6.152 0 0 1 37.134 42.969 A 8.678 8.678 0 0 1 35.263 43.547 Q 34.393 43.718 33.395 43.76 A 15.931 15.931 0 0 1 32.715 43.774 Q 29.566 43.774 27.592 42.627 A 5.994 5.994 0 0 1 25.537 40.674 Q 24.131 38.497 23.713 34.96 A 27.69 27.69 0 0 1 23.535 31.714 Z M 243.652 32.031 L 243.652 17.383 Q 243.652 12.866 242.285 11.914 A 2.294 2.294 0 0 0 241.388 11.565 A 3.075 3.075 0 0 0 240.869 11.523 A 2.729 2.729 0 0 0 240 11.653 Q 239.194 11.923 238.803 12.754 A 2.988 2.988 0 0 0 238.696 13.013 A 7.002 7.002 0 0 0 238.419 14.056 Q 238.201 15.183 238.166 16.807 A 29.838 29.838 0 0 0 238.159 17.456 L 238.159 32.52 Q 238.159 35.079 238.569 36.548 A 5.692 5.692 0 0 0 238.733 37.048 Q 239.307 38.55 240.881 38.55 A 2.524 2.524 0 0 0 241.807 38.389 Q 242.652 38.059 243.054 37.048 A 6.01 6.01 0 0 0 243.337 36.077 Q 243.652 34.586 243.652 32.031 Z M 35.327 33.252 L 35.327 16.87 Q 35.327 14.543 34.905 13.224 A 4.705 4.705 0 0 0 34.766 12.842 Q 34.204 11.499 32.69 11.499 Q 31.177 11.499 30.615 12.83 Q 30.054 14.16 30.054 16.87 L 30.054 33.252 Q 30.054 37.025 31.21 38.056 A 1.612 1.612 0 0 0 31.372 38.184 Q 31.908 38.549 32.71 38.55 A 3.627 3.627 0 0 0 32.715 38.55 A 2.634 2.634 0 0 0 33.545 38.427 Q 34.316 38.172 34.702 37.387 A 2.797 2.797 0 0 0 34.778 37.219 A 5.684 5.684 0 0 0 35.068 36.26 Q 35.29 35.237 35.322 33.761 A 23.499 23.499 0 0 0 35.327 33.252 Z M 125.439 35.889 L 125.439 23.462 A 26.826 26.826 0 0 0 124.027 24.136 Q 122.65 24.847 121.845 25.517 A 4.987 4.987 0 0 0 121.289 26.05 A 3.733 3.733 0 0 0 120.594 27.263 Q 120.215 28.312 120.215 29.834 L 120.215 33.765 A 19.629 19.629 0 0 0 120.248 34.956 Q 120.32 36.13 120.545 36.89 A 3.615 3.615 0 0 0 120.752 37.439 A 2.165 2.165 0 0 0 121.186 38.057 Q 121.629 38.488 122.301 38.542 A 2.457 2.457 0 0 0 122.498 38.55 A 2.912 2.912 0 0 0 123.471 38.393 A 2.507 2.507 0 0 0 124.475 37.732 A 3.838 3.838 0 0 0 125.206 36.643 A 3.505 3.505 0 0 0 125.439 35.889 Z M 219.434 35.889 L 219.434 23.462 A 26.826 26.826 0 0 0 218.021 24.136 Q 216.644 24.847 215.839 25.517 A 4.987 4.987 0 0 0 215.283 26.05 A 3.733 3.733 0 0 0 214.588 27.263 Q 214.209 28.312 214.209 29.834 L 214.209 33.765 A 19.629 19.629 0 0 0 214.243 34.956 Q 214.314 36.13 214.539 36.89 A 3.615 3.615 0 0 0 214.746 37.439 A 2.165 2.165 0 0 0 215.18 38.057 Q 215.623 38.488 216.295 38.542 A 2.457 2.457 0 0 0 216.492 38.55 A 2.912 2.912 0 0 0 217.465 38.393 A 2.507 2.507 0 0 0 218.469 37.732 A 3.838 3.838 0 0 0 219.2 36.643 A 3.505 3.505 0 0 0 219.434 35.889 Z M 166.748 5.396 L 166.748 17.969 L 169.36 17.969 A 4.388 4.388 0 0 0 170.034 17.921 Q 170.384 17.866 170.663 17.75 A 1.782 1.782 0 0 0 171.204 17.407 A 2.021 2.021 0 0 0 171.586 16.9 Q 171.855 16.409 172.003 15.65 A 7.372 7.372 0 0 0 172.034 15.479 Q 172.214 14.418 172.254 12.492 A 56.846 56.846 0 0 0 172.266 11.304 L 172.266 11.035 A 32.819 32.819 0 0 0 172.238 9.623 Q 172.137 7.309 171.68 6.47 Q 171.094 5.396 168.97 5.396 L 166.748 5.396 Z M 190.796 17.163 L 190.796 21.68 L 196.021 21.68 L 196.021 16.992 Q 196.021 14.659 195.733 13.35 A 5.241 5.241 0 0 0 195.544 12.683 Q 195.151 11.604 194.083 11.416 A 2.772 2.772 0 0 0 193.604 11.377 L 193.579 11.377 A 2.267 2.267 0 0 0 191.45 12.631 Q 190.929 13.583 190.845 15.259 Q 190.796 15.991 190.796 17.163 Z M 262.5 17.163 L 262.5 21.68 L 267.725 21.68 L 267.725 16.992 Q 267.725 14.659 267.437 13.35 A 5.241 5.241 0 0 0 267.249 12.683 Q 266.855 11.604 265.787 11.416 A 2.772 2.772 0 0 0 265.308 11.377 L 265.283 11.377 A 2.267 2.267 0 0 0 263.154 12.631 Q 262.633 13.583 262.549 15.259 Q 262.5 15.991 262.5 17.163 Z" vector-effect="non-scaling-stroke"/></g></svg>